<?xml version="1.0" encoding="UTF-8"?>
<svg xmlns="http://www.w3.org/2000/svg" width="48" height="48" viewBox="0 0 48 48" fill="none">
  <path fill-rule="evenodd" clip-rule="evenodd" d="M17.4633 11.5427L11.3391 19.8287C8.76961 23.3052 7.48488 25.0434 8.19279 26.4101C8.20451 26.4327 8.21658 26.4552 8.22899 26.4775C8.97889 27.8233 11.1978 27.8233 15.6355 27.8233C18.1016 27.8233 19.3346 27.8233 20.108 28.5508L20.1481 28.5892L27.892 19.4493L27.8519 19.4108C27.0949 18.6677 27.0949 17.483 27.0949 15.1136V14.4942C27.0949 7.92498 27.0949 4.64036 25.2481 4.07443C23.4014 3.5085 21.4221 6.18655 17.4633 11.5427Z" fill="white"></path>
  <path opacity="0.5" d="M20.9055 32.8864L20.9055 33.5055C20.9054 40.0749 20.9053 43.3595 22.752 43.9255C24.5988 44.4914 26.5782 41.8133 30.537 36.4572L36.6612 28.1713C39.2307 24.6948 40.5155 22.9566 39.8076 21.5899C39.7959 21.5673 39.7838 21.5448 39.7714 21.5225C39.0215 20.1766 36.8026 20.1766 32.3648 20.1766C29.8988 20.1766 28.6658 20.1766 27.8924 19.4492L20.1484 28.5891C20.9055 29.3323 20.9055 30.517 20.9055 32.8864Z" fill="white"></path>
</svg>
