<?xml version="1.0" encoding="UTF-8"?>
<svg xmlns="http://www.w3.org/2000/svg" width="18" height="18" viewBox="0 0 18 18" fill="none">
  <path opacity="0.5" d="M1.5 9.15294C1.5 7.43662 1.5 6.57846 1.8894 5.86706C2.2788 5.15566 2.99021 4.71414 4.41303 3.83109L5.91302 2.90015C7.41704 1.96672 8.16905 1.5 9 1.5C9.83095 1.5 10.583 1.96672 12.087 2.90015L13.587 3.83109C15.0098 4.71413 15.7212 5.15566 16.1106 5.86706C16.5 6.57846 16.5 7.43662 16.5 9.15294V10.2937C16.5 13.2194 16.5 14.6822 15.6213 15.5911C14.7426 16.5 13.3284 16.5 10.5 16.5H7.5C4.67157 16.5 3.25736 16.5 2.37868 15.5911C1.5 14.6822 1.5 13.2194 1.5 10.2937V9.15294Z" fill="#1A2E77"></path>
  <path d="M7.085 11.5481C6.83542 11.3631 6.48313 11.4155 6.29814 11.6651C6.11315 11.9147 6.1655 12.2669 6.41508 12.4519C7.14438 12.9925 8.03631 13.3125 9.00004 13.3125C9.96376 13.3125 10.8557 12.9925 11.585 12.4519C11.8346 12.2669 11.8869 11.9147 11.7019 11.6651C11.5169 11.4155 11.1647 11.3631 10.9151 11.5481C10.3688 11.953 9.70946 12.1875 9.00004 12.1875C8.29061 12.1875 7.63125 11.953 7.085 11.5481Z" fill="#2A3F90"></path>
</svg>
