<?xml version="1.0" encoding="UTF-8"?>
<svg xmlns="http://www.w3.org/2000/svg" width="56" height="56" viewBox="0 0 56 56" fill="none">
  <g clip-path="url(#clip0_954_1790)">
    <path d="M32.1396 1.95318L11.7849 12.7588C11.2203 13.0585 10.8672 13.6454 10.8672 14.2848V41.4091C10.8672 42.5047 11.4828 43.5072 12.46 44.0027L32.4202 54.1266C33.0569 54.4497 33.8099 54.4497 34.4468 54.1266L54.407 44.0027C55.3842 43.5072 55.9996 42.5046 55.9996 41.4091V14.2848C55.9996 13.6454 55.6467 13.0585 55.0821 12.7588L34.7274 1.95318C33.9184 1.5237 32.949 1.5237 32.1396 1.95318Z" fill="#FFCE94"></path>
    <path d="M33.4336 54.369C33.781 54.369 34.1285 54.2884 34.4469 54.1268L54.4072 44.0029C55.3843 43.5074 55.9998 42.5047 55.9998 41.4093V14.2848C55.9998 14.0024 55.9277 13.7322 55.8022 13.4905L33.4336 25.4044V54.369Z" fill="#FCB043"></path>
    <path d="M33.4334 25.4042L11.065 13.4903C10.9395 13.732 10.8672 14.0022 10.8672 14.2846V41.4091C10.8672 42.5047 11.4828 43.5072 12.46 44.0027L32.4202 54.1266C32.7387 54.2882 33.0859 54.3689 33.4334 54.3689V25.4042Z" fill="#E2791B"></path>
    <path d="M41.4095 5.49982L18.7715 17.5557V21.4133C18.7715 21.7835 18.9757 22.1235 19.3023 22.2977L23.2365 24.3946C23.5487 24.561 23.9256 24.3348 23.9256 23.981V20.3806L46.5985 8.25464L41.4095 5.49982Z" fill="#DEF2FC"></path>
    <path d="M36.6953 46.6715L42.7344 43.7831C43.5077 43.4135 43.9919 42.6243 43.9718 41.7675L43.9711 41.7407C43.9543 41.0339 43.204 40.5878 42.575 40.9109L36.6955 43.9304L36.6953 46.6715Z" fill="#403A46"></path>
    <path d="M36.6953 50.8831L40.0115 49.3424C40.7969 48.9774 41.2914 48.182 41.2709 47.3162C41.2541 46.6069 40.4994 46.161 39.87 46.4887L36.6953 48.1416V50.8831Z" fill="#403A46"></path>
    <path d="M18.7715 17.5944V21.4133C18.7715 21.7835 18.9757 22.1236 19.3023 22.2978L23.2365 24.3946C23.5487 24.561 23.9256 24.3348 23.9256 23.981V20.3807L23.9639 20.3601C22.6314 19.6502 20.4669 18.4975 18.7715 17.5944Z" fill="#B6C8CE"></path>
    <path d="M17.9716 27.8204C15.9634 27.8131 12.9046 27.3801 10.7947 25.1356C10.3351 24.6467 9.53842 24.6424 9.07913 25.1317C6.9687 27.3799 3.90686 27.8133 1.89764 27.8204C0.792178 27.8244 -0.0724852 28.7776 0.00480613 29.8803L0.697929 39.7915C1.37338 44.1144 6.84018 46.9837 9.03165 47.9704C9.6075 48.2296 10.2633 48.2296 10.8392 47.9704C13.0306 46.9837 18.4973 44.1143 19.1729 39.7915L19.866 29.8803C19.9428 28.7772 19.0776 27.8245 17.9716 27.8204Z" fill="#45ABDD"></path>
    <path d="M17.9721 27.8204C15.9639 27.8131 12.9051 27.3801 10.7952 25.1356C10.5649 24.8905 10.2502 24.7675 9.93555 24.767V48.165C10.2435 48.165 10.5514 48.1002 10.8393 47.9706C13.0308 46.9839 18.4974 44.1143 19.173 39.7917L19.8661 29.8805C19.9433 28.7772 19.0781 27.8245 17.9721 27.8204Z" fill="#DEF2FC"></path>
  </g>
  <defs>
    <clipPath id="clip0_954_1790">
      <rect width="56" height="56" fill="white"></rect>
    </clipPath>
  </defs>
</svg>
