<?xml version="1.0" encoding="UTF-8"?>
<svg xmlns="http://www.w3.org/2000/svg" width="18" height="18" viewBox="0 0 18 18" fill="none">
  <path fill-rule="evenodd" clip-rule="evenodd" d="M8.01495 4.85933L7.52819 3.98713C6.86488 2.79858 5.19807 2.65821 4.15335 3.70292C3.5256 4.33068 3.03714 5.0997 3.00491 5.94982C2.96314 7.05161 3.16821 8.74571 4.37733 10.5795L7.58603 7.37085C8.27789 6.679 8.45423 5.64644 8.01495 4.85933ZM10.6291 10.414L7.42045 13.6227C9.25429 14.8318 10.9484 15.0369 12.0502 14.9951C12.9003 14.9629 13.6693 14.4744 14.2971 13.8466C15.3418 12.8019 15.2014 11.1351 14.0129 10.4718L13.1407 9.98505C12.3536 9.54577 11.321 9.72211 10.6291 10.414Z" fill="white"></path>
  <path opacity="0.5" d="M8.26849 9.73161C6.74694 8.21006 7.58614 7.37085 7.58614 7.37085L4.37744 10.5795C4.73883 11.1276 5.1899 11.6882 5.75089 12.2492C6.31187 12.8102 6.87246 13.2613 7.42056 13.6227L10.6293 10.414C10.6293 10.414 9.79002 11.2531 8.26849 9.73161Z" fill="white"></path>
</svg>
