<?xml version="1.0" encoding="UTF-8"?>
<svg xmlns="http://www.w3.org/2000/svg" width="33" height="33" fill="none">
  <g fill="#fff" clip-path="url(#a)">
    <path fill-opacity=".75" d="M15.232 12.34a1.375 1.375 0 0 0-1.23 1.505c.075.759.748 1.31 1.505 1.233a2.73 2.73 0 0 1 2.216.772c.574.575.855 1.382.772 2.215a1.372 1.372 0 0 0 2.339 1.11c.216-.216.363-.507.396-.834a5.47 5.47 0 0 0-1.564-4.435c-1.197-1.125-2.773-1.729-4.434-1.567"></path>
    <path fill-opacity=".5" d="M14.653 6.858a1.375 1.375 0 1 0 .27 2.737c2.498-.247 4.923.603 6.653 2.333s2.578 4.154 2.333 6.653a1.375 1.375 0 1 0 2.737.27c.367-3.287-.776-6.52-3.126-8.87-2.276-2.276-5.509-3.419-8.867-3.123"></path>
    <path fill-opacity=".25" d="M14.14 1.38a1.375 1.375 0 0 0 .27 2.737c4.124-.41 8.167 1.032 11.055 3.92a13.7 13.7 0 0 1 3.956 11.09 1.375 1.375 0 1 0 2.736.271c.527-4.911-1.203-9.76-4.747-13.305C23.938 2.62 19.086.888 14.14 1.379"></path>
    <path fill-rule="evenodd" d="M11.075 18.376a2.6 2.6 0 0 0 .762-3.072l-1.855-4.34a2.624 2.624 0 0 0-3.001-1.517l-3.995.969A2.616 2.616 0 0 0 .95 12.973c-.004 5.245 2.04 10.183 5.718 13.861 3.716 3.717 8.653 5.762 13.9 5.757a2.5 2.5 0 0 0 1.891-.733c.338-.338.586-.774.701-1.269l.933-4.028a2.634 2.634 0 0 0-1.523-3.009l-4.343-1.858a2.635 2.635 0 0 0-3.06.757l-1.045 1.272a12.6 12.6 0 0 1-4.278-4.278zm4.456 7.972a1.35 1.35 0 0 1-1.668.364 15.4 15.4 0 0 1-7.004-7.004 1.37 1.37 0 0 1 .364-1.669l2.155-1.766-1.924-4.224-3.79.985A16.77 16.77 0 0 0 8.612 24.89c3.233 3.233 7.474 4.987 11.986 4.982l.812-3.933-4.26-1.712z" clip-rule="evenodd"></path>
  </g>
  <defs>
    <clipPath id="a">
      <path fill="#fff" d="M0 0h33v33H0z"></path>
    </clipPath>
  </defs>
</svg>
