<?xml version="1.0" encoding="UTF-8"?>
<svg xmlns="http://www.w3.org/2000/svg" width="56" height="56" viewBox="0 0 56 56" fill="none">
  <g id="telephone" clip-path="url(#clip0_954_1820)">
    <path id="Vector" d="M39.5178 46.5795C38.5764 44.9303 37.6143 43.2875 36.6393 41.6589C34.4663 38.0279 29.4378 37.334 26.4616 40.3423C25.6833 41.129 25.1083 41.9434 24.7171 42.5863C24.2854 43.2958 23.4036 43.5949 22.6326 43.2862C9.4887 38.0227 9.2119 27.7144 9.72005 23.4551C9.83733 22.4728 10.7565 21.7752 11.7261 21.9714C13.2919 22.2881 14.6419 22.3029 15.8008 22.1213C19.2491 21.5809 20.8885 17.5519 18.8579 14.7131C16.8351 11.885 15.0281 9.42481 13.5518 7.44424C11.6085 4.837 7.67443 4.80064 5.7484 7.42072C1.93966 12.6019 -0.227516 19.0637 0.0189849 26.0429C0.56938 41.6324 13.3607 54.2665 28.9552 54.6381C31.4651 54.698 33.9059 54.4453 36.2422 53.9166C39.5241 53.1739 41.1858 49.5019 39.5178 46.5795Z" fill="#FCB043"></path>
    <g id="Group">
      <path id="Vector_2" d="M17.6998 16.9164C17.2442 17.2533 16.6018 17.1569 16.265 16.7011L11.3494 10.0502C11.0127 9.59465 11.1089 8.95228 11.5647 8.61542C12.0202 8.27873 12.6628 8.37497 12.9995 8.83072L17.9151 15.4816C18.2518 15.9374 18.1555 16.5797 17.6998 16.9164Z" fill="#E2791B"></path>
      <path id="Vector_3" d="M38.4221 49.7546C37.9314 50.038 37.304 49.8697 37.0208 49.3792L32.8857 42.2168C32.6023 41.7263 32.7706 41.0989 33.2611 40.8155C33.7518 40.5322 34.3791 40.7003 34.6624 41.1908L38.7976 48.3533C39.0807 48.8438 38.9126 49.4713 38.4221 49.7546Z" fill="#E2791B"></path>
    </g>
    <path id="Vector_4" d="M56.0007 15.8048C56.0007 7.51338 49.0183 0.852855 40.6128 1.38275C33.2372 1.84759 27.3219 7.98107 27.1041 15.3679C26.8925 22.5389 31.9069 28.5774 38.6212 29.9593L39.0533 34.232C39.1374 35.0625 40.2466 35.2812 40.6392 34.5446L42.9636 30.1867C50.2811 29.4755 56.0007 23.3089 56.0007 15.8048Z" fill="#DEF2FC"></path>
    <g id="Group_2">
      <path id="Vector_5" d="M36.3199 21.3909C36.9076 21.3909 37.384 20.9145 37.384 20.3268C37.384 19.7392 36.9076 19.2628 36.3199 19.2628C35.7323 19.2628 35.2559 19.7392 35.2559 20.3268C35.2559 20.9145 35.7323 21.3909 36.3199 21.3909Z" fill="#403A46"></path>
      <path id="Vector_6" d="M41.5405 21.3907C42.128 21.3907 42.6044 20.9144 42.6044 20.3268C42.6044 19.7393 42.128 19.2629 41.5405 19.2629C40.9529 19.2629 40.4766 19.7393 40.4766 20.3268C40.4766 20.9144 40.9529 21.3907 41.5405 21.3907Z" fill="#403A46"></path>
      <path id="Vector_7" d="M46.849 21.3907C47.4366 21.3907 47.9129 20.9144 47.9129 20.3268C47.9129 19.7393 47.4366 19.2629 46.849 19.2629C46.2615 19.2629 45.7852 19.7393 45.7852 20.3268C45.7852 20.9144 46.2615 21.3907 46.849 21.3907Z" fill="#403A46"></path>
    </g>
  </g>
  <defs>
    <clipPath id="clip0_954_1820">
      <rect width="56" height="56" fill="white"></rect>
    </clipPath>
  </defs>
</svg>
